
        <svg xmlns="http://www.w3.org/2000/svg" xmlns:xlink="http://www.w3.org/1999/xlink" version="1.1" width="3192" height="3192" viewBox="0 0 3192 3192">
			
			<g transform="scale(9.6) translate(10, 10)">
				<defs id="SvgjsDefs2041"/><g id="SvgjsG2042" featureKey="rootContainer" transform="matrix(6.25,0,0,6.25,0,0)" fill="#fff"><circle cx="25" cy="25" r="25"/></g><g id="SvgjsG2043" featureKey="symbolFeature-0" transform="matrix(1.0472573982099138,0,0,1.0472573982099138,103.69792454320765,63.5644730719551)" fill="#000000"><g xmlns="http://www.w3.org/2000/svg"><path d="M45.3,72.3l0.1,19.5h9.3l-0.1-19.5L87.2,77L59.3,54.7l22.3,6.5L59.3,40.7l14,4.6c0,0-23.1-37.2-23.3-37.2   S26.8,45.3,26.8,45.3l14-4.6L18.4,62.1l23.3-7.4L12.8,77.1L45.3,72.3z"/><g><path d="M44.3,72.3c0,6.5,0,13,0.1,19.5c0,0.5,0.5,1,1,1c3.1,0,6.2,0,9.3,0c0.5,0,1-0.5,1-1c0-6.5,0-13-0.1-19.5    c-0.4,0.3-0.8,0.6-1.3,1c10.9,1.6,21.7,3.1,32.5,4.7c0.8,0.1,1.9-1,1-1.7C78.6,68.8,69.3,61.4,60,53.9c-0.3,0.6-0.6,1.1-1,1.7    c7.4,2.2,14.9,4.3,22.3,6.5c0.9,0.3,1.7-1,1-1.7C74.9,53.6,67.4,46.8,60,40c-0.3,0.6-0.6,1.1-1,1.7c4.7,1.5,9.3,3.1,14,4.6    c0.8,0.3,1.6-0.7,1.1-1.5c-3.9-6.3-7.9-12.7-11.8-19c-2.6-4.2-5.3-8.5-7.9-12.7c-1.1-1.8-2.2-4.1-3.7-5.7c-0.4-0.4-1.1-0.4-1.4,0    c-1.4,1.5-2.4,3.7-3.5,5.4c-2.7,4.3-5.4,8.7-8.1,13c-3.9,6.3-7.9,12.7-11.8,19c-0.4,0.7,0.3,1.7,1.1,1.5c4.6-1.5,9.3-3.1,13.9-4.6    c-0.3-0.6-0.6-1.1-1-1.7c-7.4,7.1-14.9,14.3-22.3,21.4c-0.7,0.7,0,2,1,1.7c7.8-2.5,15.5-5,23.3-7.4c-0.3-0.6-0.6-1.1-1-1.7    c-9.6,7.5-19.2,14.9-28.8,22.4c-0.9,0.7,0.1,1.8,1,1.7c10.9-1.6,21.7-3.2,32.6-4.7c1.3-0.2,0.7-2.1-0.5-1.9    c-10.8,1.6-21.7,3.2-32.5,4.7c0.3,0.6,0.6,1.1,1,1.7c9.6-7.5,19.2-14.9,28.8-22.4c0.8-0.6-0.1-2-1-1.7c-7.8,2.5-15.5,5-23.2,7.4    c0.3,0.6,0.6,1.1,1,1.7c7.4-7.1,14.9-14.3,22.3-21.4c0.7-0.7,0-2-1-1.7c-4.7,1.5-9.3,3.1-14,4.6c0.4,0.5,0.8,1,1.1,1.5    c3.8-6.1,7.5-12.1,11.3-18.2c2.6-4.2,5.2-8.4,7.8-12.6c1.2-1.9,2.8-5,4-6.3c-0.5,0-0.9,0-1.4,0c1.1,1.2,2.7,4.2,3.8,5.9    c2.7,4.3,5.4,8.6,8,12.9c3.8,6.1,7.5,12.1,11.3,18.2c0.4-0.5,0.8-1,1.1-1.5c-4.7-1.5-9.3-3.1-14-4.6c-0.9-0.3-1.7,1-1,1.7    C66,48.2,73.5,55,80.9,61.9c0.3-0.6,0.6-1.1,1-1.7C74.4,58,67,55.9,59.6,53.7c-0.9-0.3-1.8,1-1,1.7c9.3,7.4,18.6,14.9,27.9,22.3    c0.3-0.6,0.6-1.1,1-1.7c-10.9-1.6-21.7-3.1-32.6-4.7c-0.6-0.1-1.3,0.2-1.3,1c0,6.5,0,13,0.1,19.5c0.3-0.3,0.7-0.7,1-1    c-3.1,0-6.2,0-9.3,0c0.3,0.3,0.7,0.7,1,1c0-6.5,0-13-0.1-19.5C46.3,71,44.3,71,44.3,72.3z"/></g></g></g><g id="SvgjsG2044" featureKey="nameFeature-0" transform="matrix(0.9143692678390674,0,0,0.9143692678390674,53.476340175476416,170.53961683161617)" fill="#000000"><path d="M15.68 11.440000000000001 c3.04 0 5.44 0.82668 7.2 2.48 s2.64 3.88 2.64 6.68 c0 2.8267 -0.88 5.06 -2.64 6.7 s-4.1468 2.46 -7.16 2.46 l-6.68 0 l0 10.24 l-6.28 0 l0 -28.56 l12.92 0 z M14.04 24.880000000000003 c1.8133 0 3.1667 -0.33332 4.06 -1 s1.34 -1.76 1.34 -3.28 c0 -1.4667 -0.43332 -2.5467 -1.3 -3.24 s-2.22 -1.04 -4.06 -1.04 l-5.04 0 l0 8.56 l5 0 z M45.254999999999995 11.440000000000001 l10.68 28.56 l-6.52 0 l-2.16 -6.36 l-10.68 0 l-2.24 6.36 l-6.36 0 l10.84 -28.56 l6.44 0 z M41.935 18.48 l-3.72 10.48 l7.4 0 l-3.6 -10.48 l-0.08 0 z M78.35 11.440000000000001 c2.4 0 4.3936 0.74 5.98 2.22 s2.38 3.3667 2.38 5.66 c0 3.5733 -1.5067 5.96 -4.52 7.16 l0 0.08 c1.0133 0.29332 1.8066 0.78 2.38 1.46 s1.0066 1.4733 1.3 2.38 s0.48 2.36 0.56 4.36 c0.10668 2.6133 0.48 4.36 1.12 5.24 l-6.28 0 c-0.34668 -0.88 -0.61336 -2.5333 -0.80004 -4.96 c-0.21332 -2.56 -0.68 -4.2332 -1.4 -5.02 s-1.8933 -1.18 -3.52 -1.18 l-6.32 0 l0 11.16 l-6.28 0 l0 -28.56 l15.4 0 z M76.15 24.36 c1.3333 0 2.38 -0.3 3.14 -0.9 s1.14 -1.66 1.14 -3.18 c0 -1.44 -0.37332 -2.46 -1.12 -3.06 s-1.8134 -0.9 -3.2 -0.9 l-6.88 0 l0 8.04 l6.92 0 z M102.64499999999998 11.440000000000001 l0 11.84 l11.16 -11.84 l7.84 0 l-11.16 11.28 l12.24 17.28 l-7.88 0 l-8.6 -12.84 l-3.6 3.64 l0 9.2 l-6.28 0 l0 -28.56 l6.28 0 z M144.01999999999998 11.440000000000001 l10.68 28.56 l-6.52 0 l-2.16 -6.36 l-10.68 0 l-2.24 6.36 l-6.36 0 l10.84 -28.56 l6.44 0 z M140.7 18.48 l-3.72 10.48 l7.4 0 l-3.6 -10.48 l-0.08 0 z M177.11499999999998 11.440000000000001 c2.4 0 4.3936 0.74 5.98 2.22 s2.38 3.3667 2.38 5.66 c0 3.5733 -1.5067 5.96 -4.52 7.16 l0 0.08 c1.0133 0.29332 1.8066 0.78 2.38 1.46 s1.0066 1.4733 1.3 2.38 s0.48 2.36 0.56 4.36 c0.10668 2.6133 0.48 4.36 1.12 5.24 l-6.28 0 c-0.34668 -0.88 -0.61336 -2.5333 -0.80004 -4.96 c-0.21332 -2.56 -0.68 -4.2332 -1.4 -5.02 s-1.8933 -1.18 -3.52 -1.18 l-6.32 0 l0 11.16 l-6.28 0 l0 -28.56 l15.4 0 z M174.915 24.36 c1.3333 0 2.38 -0.3 3.14 -0.9 s1.14 -1.66 1.14 -3.18 c0 -1.44 -0.37332 -2.46 -1.12 -3.06 s-1.8134 -0.9 -3.2 -0.9 l-6.88 0 l0 8.04 l6.92 0 z M201.40999999999997 11.440000000000001 l0 11.84 l11.16 -11.84 l7.84 0 l-11.16 11.28 l12.24 17.28 l-7.88 0 l-8.6 -12.84 l-3.6 3.64 l0 9.2 l-6.28 0 l0 -28.56 l6.28 0 z"/></g><g id="SvgjsG2045" featureKey="sloganFeature-0" transform="matrix(1.0062893081761006,0,0,1.0062893081761006,74.61132063955631,221.5861634068519)" fill="#000000"><path d="M12.06 5.720000000000001 l0 2.64 l-7.54 0 l0 3.06 l6.92 0 l0 2.44 l-6.92 0 l0 3.5 l7.7 0 l0 2.64 l-10.84 0 l0 -14.28 l10.68 0 z M16.880000000000003 5.720000000000001 l2.8 4.56 l2.9 -4.56 l3.44 0 l-4.58 6.82 l4.98 7.46 l-3.74 0 l-3.12 -4.94 l-3.18 4.94 l-3.54 0 l5 -7.48 l-4.6 -6.8 l3.64 0 z M34.14 5.720000000000001 c1.52 0 2.72 0.41334 3.6 1.24 s1.32 1.94 1.32 3.34 c0 1.4133 -0.44 2.53 -1.32 3.35 s-2.0734 1.23 -3.58 1.23 l-3.34 0 l0 5.12 l-3.14 0 l0 -14.28 l6.46 0 z M33.32 12.440000000000001 c0.90666 0 1.5833 -0.16666 2.03 -0.5 s0.67 -0.88 0.67 -1.64 c0 -0.73334 -0.21666 -1.2733 -0.65 -1.62 s-1.11 -0.52 -2.03 -0.52 l-2.52 0 l0 4.28 l2.5 0 z M44.16 5.720000000000001 l0 11.64 l6.96 0 l0 2.64 l-10.1 0 l0 -14.28 l3.14 0 z M59.28 5.380000000000001 c2.1066 0 3.8034 0.7 5.09 2.1 s1.93 3.2134 1.93 5.44 c0 2.1734 -0.64666 3.9534 -1.94 5.34 s-2.9866 2.08 -5.08 2.08 c-2.1066 0 -3.8034 -0.69334 -5.09 -2.08 s-1.93 -3.1666 -1.93 -5.34 c0 -2.2134 0.64666 -4.0234 1.94 -5.43 s2.9866 -2.11 5.08 -2.11 z M55.4 12.92 c0 1.44 0.33998 2.5966 1.02 3.47 s1.6333 1.31 2.86 1.31 c1.2 0 2.1466 -0.43 2.84 -1.29 s1.04 -2.0234 1.04 -3.49 c0 -1.5333 -0.34334 -2.7334 -1.03 -3.6 s-1.6433 -1.3 -2.87 -1.3 c-1.2 0 -2.1434 0.43334 -2.83 1.3 s-1.03 2.0666 -1.03 3.6 z M76.14 5.720000000000001 c1.2 0 2.1968 0.37 2.99 1.11 s1.19 1.6833 1.19 2.83 c0 1.7867 -0.75334 2.98 -2.26 3.58 l0 0.04 c0.50666 0.14666 0.90332 0.39 1.19 0.73 s0.50332 0.73666 0.64998 1.19 s0.24 1.18 0.28 2.18 c0.05334 1.3067 0.24 2.18 0.56 2.62 l-3.14 0 c-0.17334 -0.44 -0.30668 -1.2667 -0.40002 -2.48 c-0.10666 -1.28 -0.34 -2.1166 -0.7 -2.51 s-0.94666 -0.59 -1.76 -0.59 l-3.16 0 l0 5.58 l-3.14 0 l0 -14.28 l7.7 0 z M75.04 12.18 c0.66666 0 1.19 -0.15 1.57 -0.45 s0.57 -0.83 0.57 -1.59 c0 -0.72 -0.18666 -1.23 -0.56 -1.53 s-0.90668 -0.45 -1.6 -0.45 l-3.44 0 l0 4.02 l3.46 0 z M93.56 5.720000000000001 l0 2.64 l-7.54 0 l0 3.06 l6.92 0 l0 2.44 l-6.92 0 l0 3.5 l7.7 0 l0 2.64 l-10.84 0 l0 -14.28 l10.68 0 z M105.82000000000001 5.720000000000001 l3.34 9.82 l0.04 0 l3.16 -9.82 l4.42 0 l0 14.28 l-2.94 0 l0 -10.12 l-0.04 0 l-3.5 10.12 l-2.42 0 l-3.5 -10.02 l-0.04 0 l0 10.02 l-2.94 0 l0 -14.28 l4.42 0 z M125.94000000000001 5.380000000000001 c2.1066 0 3.8034 0.7 5.09 2.1 s1.93 3.2134 1.93 5.44 c0 2.1734 -0.64666 3.9534 -1.94 5.34 s-2.9866 2.08 -5.08 2.08 c-2.1066 0 -3.8034 -0.69334 -5.09 -2.08 s-1.93 -3.1666 -1.93 -5.34 c0 -2.2134 0.64666 -4.0234 1.94 -5.43 s2.9866 -2.11 5.08 -2.11 z M122.06000000000002 12.92 c0 1.44 0.33998 2.5966 1.02 3.47 s1.6333 1.31 2.86 1.31 c1.2 0 2.1466 -0.43 2.84 -1.29 s1.04 -2.0234 1.04 -3.49 c0 -1.5333 -0.34334 -2.7334 -1.03 -3.6 s-1.6433 -1.3 -2.87 -1.3 c-1.2 0 -2.1434 0.43334 -2.83 1.3 s-1.03 2.0666 -1.03 3.6 z M142.8 5.720000000000001 c1.2 0 2.1968 0.37 2.99 1.11 s1.19 1.6833 1.19 2.83 c0 1.7867 -0.75334 2.98 -2.26 3.58 l0 0.04 c0.50666 0.14666 0.90332 0.39 1.19 0.73 s0.50332 0.73666 0.64998 1.19 s0.24 1.18 0.28 2.18 c0.05334 1.3067 0.24 2.18 0.56 2.62 l-3.14 0 c-0.17334 -0.44 -0.30668 -1.2667 -0.40002 -2.48 c-0.10666 -1.28 -0.34 -2.1166 -0.7 -2.51 s-0.94666 -0.59 -1.76 -0.59 l-3.16 0 l0 5.58 l-3.14 0 l0 -14.28 l7.7 0 z M141.7 12.18 c0.66666 0 1.19 -0.15 1.57 -0.45 s0.57 -0.83 0.57 -1.59 c0 -0.72 -0.18666 -1.23 -0.56 -1.53 s-0.90668 -0.45 -1.6 -0.45 l-3.44 0 l0 4.02 l3.46 0 z M160.22 5.720000000000001 l0 2.64 l-7.54 0 l0 3.06 l6.92 0 l0 2.44 l-6.92 0 l0 3.5 l7.7 0 l0 2.64 l-10.84 0 l0 -14.28 l10.68 0 z"/></g>
			</g>
		</svg>
	